<svg width="239" height="178" viewBox="0 0 239 178" fill="none" xmlns="http://www.w3.org/2000/svg"><path opacity="1" d="M70.5728 176.684H70.5767C91.9198 176.684 108.758 168.925 120.971 153.38L120.972 153.379C133.163 137.808 139.222 116.086 139.277 88.34C139.331 69.9622 136.617 54.2663 131.092 41.2841C125.57 28.2528 117.651 18.2646 107.315 11.374C97.0304 4.48053 84.7688 1.05444 70.5767 1.05444C49.2927 1.05444 32.457 8.70061 20.1877 24.0233L20.1874 24.0237C7.99012 39.2703 1.93171 60.7519 1.8768 88.3346C1.82199 106.766 4.50924 122.594 9.97539 135.79L9.97677 135.794C15.4969 148.987 23.3868 159.112 33.667 166.114L33.6691 166.115C44.0079 173.119 56.3243 176.629 70.5728 176.684ZM101.094 88.337L101.094 88.3399C101.148 107.593 98.3135 121.866 92.7199 131.296C87.1335 140.713 79.7633 145.295 70.5767 145.295C61.39 145.295 53.9919 140.712 48.351 131.295C42.7578 121.865 39.9236 107.592 39.978 88.3399C40.0323 69.361 42.9198 55.2776 48.5128 45.9558C54.098 36.6473 61.4413 32.1155 70.5767 32.1155C79.7121 32.1155 87.0554 36.6473 92.6406 45.9558C98.2329 55.2763 101.094 69.3585 101.094 88.337ZM237.491 4.34658V3.34658H236.491H203.173H202.883L202.638 3.50169L161.134 29.7794L160.669 30.0739V30.6243V62.0593V63.8664L162.2 62.9066L200.044 39.1832V172V173H201.044H236.491H237.491V172V4.34658Z" stroke="white" stroke-width="2"/></svg>
