<svg width="285" height="178" viewBox="0 0 285 178" fill="none" xmlns="http://www.w3.org/2000/svg"><path opacity="1" d="M70.3638 176.684H70.3677C91.7108 176.684 108.549 168.925 120.762 153.38L120.764 153.379C132.954 137.808 139.013 116.086 139.068 88.34C139.122 69.9622 136.408 54.2663 130.883 41.2841C125.361 28.2528 117.442 18.2646 107.106 11.374C96.8214 4.48053 84.5598 1.05444 70.3677 1.05444C49.0837 1.05444 32.248 8.70061 19.9787 24.0233L19.9785 24.0237C7.78114 39.2703 1.72272 60.7519 1.66781 88.3346C1.61301 106.766 4.30025 122.594 9.76641 135.79L9.76779 135.794C15.2879 148.987 23.1778 159.112 33.4581 166.114L33.4601 166.115C43.7989 173.119 56.1153 176.629 70.3638 176.684ZM100.885 88.337L100.885 88.3399C100.939 107.593 98.1046 121.866 92.5109 131.296C86.9246 140.713 79.5543 145.295 70.3677 145.295C61.181 145.295 53.7829 140.712 48.1421 131.295C42.5488 121.865 39.7146 107.592 39.769 88.3399C39.8233 69.361 42.7108 55.2776 48.3038 45.9558C53.889 36.6473 61.2324 32.1155 70.3677 32.1155C79.5031 32.1155 86.8465 36.6473 92.4316 45.9558C98.0239 55.2763 100.885 69.3585 100.885 88.337ZM162.343 172V173H163.343H282.861H283.861V172V143.021V142.021H282.861H213.739L237.623 118.616C249.148 108.129 258.075 99.1215 264.389 91.5996C270.758 84.023 275.248 77.084 277.811 70.7863C280.368 64.5059 281.651 58.1294 281.651 51.6628C281.651 41.7687 279.119 33.0032 274.033 25.4021C268.956 17.76 261.851 11.8073 252.755 7.53609C243.699 3.20333 233.096 1.05444 220.973 1.05444C209.113 1.05444 198.615 3.28914 189.505 7.78866L189.503 7.78974C180.448 12.2895 173.372 18.6635 168.303 26.9079C163.225 35.1659 160.705 44.8766 160.705 56.0015V57.0015H161.705H195.351H196.357L196.351 55.9947C196.297 48.1757 198.525 42.1555 202.93 37.8027L202.227 37.0914L202.93 37.8026C207.407 33.3781 213.306 31.1331 220.728 31.1331C227.886 31.1331 233.752 33.2211 238.401 37.3481L238.41 37.3559C243.072 41.3962 245.433 46.9161 245.433 54.0368C245.433 60.4795 243.51 66.3024 239.652 71.5349C235.716 76.8718 229.951 83.1833 222.335 90.474C222.333 90.4759 222.331 90.4779 222.329 90.4798L162.663 145.725L162.343 146.022V146.459V172Z" stroke="white" stroke-width="2"/></svg>
