<svg width="292" height="178" viewBox="0 0 292 178" fill="none" xmlns="http://www.w3.org/2000/svg"><path opacity="1" d="M70.4874 176.684H70.4913C91.8343 176.684 108.672 168.925 120.886 153.38L120.887 153.379C133.078 137.808 139.136 116.086 139.191 88.34C139.246 69.9622 136.531 54.2663 131.007 41.2841C125.485 28.2528 117.565 18.2646 107.23 11.374C96.945 4.48053 84.6834 1.05444 70.4913 1.05444C49.2072 1.05444 32.3715 8.70061 20.1023 24.0233L20.102 24.0237C7.90467 39.2703 1.84626 60.7519 1.79135 88.3346C1.73654 106.766 4.42379 122.594 9.88995 135.79L9.89132 135.794C15.4115 148.987 23.3013 159.112 33.5816 166.114L33.5837 166.115C43.9225 173.119 56.2388 176.629 70.4874 176.684ZM101.008 88.337L101.008 88.3399C101.063 107.593 98.2281 121.866 92.6344 131.296C87.0481 140.713 79.6779 145.295 70.4913 145.295C61.3046 145.295 53.9064 140.712 48.2656 131.295C42.6724 121.865 39.8381 107.592 39.8925 88.3399C39.9469 69.361 42.8343 55.2776 48.4274 45.9558C54.0125 36.6473 61.3559 32.1155 70.4913 32.1155C79.6266 32.1155 86.97 36.6473 92.5551 45.9558C98.1474 55.2763 101.008 69.3585 101.008 88.337ZM161.829 123.602H160.806L160.829 124.624C161.052 134.585 163.95 143.409 169.535 151.06C175.108 158.695 182.731 164.639 192.368 168.903C202.013 173.171 213.042 175.292 225.436 175.292C238.101 175.292 249.375 173.144 259.237 168.823C269.087 164.507 276.847 158.566 282.478 150.985C288.176 143.385 290.997 134.689 290.943 124.932C290.998 114.281 287.699 105.324 281.016 98.1345C274.732 91.3201 265.776 87.0786 254.254 85.329C262.943 83.4206 270.104 79.4724 275.694 73.4653C281.777 66.9865 284.776 58.9031 284.721 49.2892C284.776 40.2544 282.318 32.0893 277.345 24.824C272.433 17.5123 265.549 11.7271 256.733 7.4578C247.896 3.17788 237.618 1.05444 225.927 1.05444C214.344 1.05444 203.912 3.15093 194.651 7.36577L194.649 7.36672C185.447 11.5797 178.101 17.4702 172.643 25.0447C167.167 32.5885 164.352 41.3037 164.185 51.1547L164.168 52.1717H165.185H199.158H200.124L200.157 51.2058C200.365 45.1248 202.891 40.3044 207.778 36.6655C212.712 32.9908 218.69 31.1331 225.763 31.1331C232.722 31.1331 238.223 33.0405 242.367 36.7705L242.372 36.7746C246.56 40.4974 248.637 45.3436 248.585 51.4086L248.585 51.4171L248.585 51.4255C248.637 57.7271 246.261 62.7833 241.429 66.6816C236.57 70.5464 230.231 72.52 222.325 72.52H206.689H205.689V73.52V99.5521V100.552H206.689H222.325C231.677 100.552 238.938 102.675 244.221 106.807L244.229 106.814C249.557 110.887 252.157 116.107 252.105 122.547L252.105 122.555L252.105 122.564C252.157 128.916 249.729 134.058 244.78 138.069C239.867 142.041 233.475 144.067 225.518 144.067C217.879 144.067 211.544 142.227 206.452 138.605C201.445 135.005 198.829 130.339 198.519 124.548L198.469 123.602H197.521H161.829Z" stroke="white" stroke-width="2"/></svg>
