<svg width="298" height="178" viewBox="0 0 298 178" fill="none" xmlns="http://www.w3.org/2000/svg"><path opacity="1" d="M70.3487 176.684H70.3526C91.6957 176.684 108.534 168.925 120.747 153.38L120.748 153.379C132.939 137.808 138.998 116.086 139.053 88.34C139.107 69.9622 136.393 54.2663 130.868 41.2841C125.346 28.2528 117.427 18.2646 107.091 11.374C96.8063 4.48053 84.5447 1.05444 70.3526 1.05444C49.0686 1.05444 32.2329 8.70061 19.9636 24.0233L19.9633 24.0237C7.766 39.2703 1.70758 60.7519 1.65268 88.3346C1.59787 106.766 4.28512 122.594 9.75127 135.79L9.75265 135.794C15.2728 148.987 23.1627 159.112 33.4429 166.114L33.445 166.115C43.7838 173.119 56.1002 176.629 70.3487 176.684ZM100.869 88.337L100.869 88.3399C100.924 107.593 98.0894 121.866 92.4958 131.296C86.9094 140.713 79.5392 145.295 70.3526 145.295C61.1659 145.295 53.7678 140.712 48.1269 131.295C42.5337 121.865 39.6994 107.592 39.7538 88.3399C39.8082 69.361 42.6956 55.2776 48.2887 45.9558C53.8739 36.6473 61.2172 32.1155 70.3526 32.1155C79.4879 32.1155 86.8313 36.6473 92.4165 45.9558C98.0088 55.2763 100.869 69.3585 100.869 88.337ZM159.79 142.53V143.53H160.79H240.26V172V173H241.26H275.151H276.151V172V143.53H295.944H296.944V142.53V114.124V113.124H295.944H276.151V4.34658V3.34658H275.151H230.782H230.232L229.937 3.81068L159.945 114.079L159.79 114.324V114.615V142.53ZM197.482 113.103L240.915 44.3672V113.124H197.482V113.103Z" stroke="white" stroke-width="2"/></svg>
