<svg width="153" height="16" viewBox="0 0 153 16" fill="none" xmlns="http://www.w3.org/2000/svg">
<path d="M7.00106 9.4947L0 1.47266V13.1411H3.50053L7.00106 9.4947Z" fill="white"/>
<path d="M7.0009 9.4947L14.002 1.47266V13.1411H10.5014L7.0009 9.4947Z" fill="#FF6161"/>
<path d="M25.7486 3.6C26.8366 3.6 27.6926 3.86 28.3166 4.38C28.9406 4.9 29.2526 5.616 29.2526 6.528C29.2526 7.44 28.9406 8.156 28.3166 8.676C27.6926 9.196 26.8366 9.456 25.7486 9.456H23.6726V12H22.4726V3.6H25.7486ZM25.7126 8.412C26.4726 8.412 27.0526 8.252 27.4526 7.932C27.8526 7.604 28.0526 7.136 28.0526 6.528C28.0526 5.92 27.8526 5.456 27.4526 5.136C27.0526 4.808 26.4726 4.644 25.7126 4.644H23.6726V8.412H25.7126ZM32.9392 5.58C33.8192 5.58 34.4912 5.796 34.9552 6.228C35.4272 6.66 35.6632 7.304 35.6632 8.16V12H34.5712V11.16C34.3792 11.456 34.1032 11.684 33.7432 11.844C33.3912 11.996 32.9712 12.072 32.4832 12.072C31.7712 12.072 31.1992 11.9 30.7672 11.556C30.3432 11.212 30.1312 10.76 30.1312 10.2C30.1312 9.64 30.3352 9.192 30.7432 8.856C31.1512 8.512 31.7992 8.34 32.6872 8.34H34.5112V8.112C34.5112 7.616 34.3672 7.236 34.0792 6.972C33.7912 6.708 33.3672 6.576 32.8072 6.576C32.4312 6.576 32.0632 6.64 31.7032 6.768C31.3432 6.888 31.0392 7.052 30.7912 7.26L30.3112 6.396C30.6392 6.132 31.0312 5.932 31.4872 5.796C31.9432 5.652 32.4272 5.58 32.9392 5.58ZM32.6752 11.184C33.1152 11.184 33.4952 11.088 33.8152 10.896C34.1352 10.696 34.3672 10.416 34.5112 10.056V9.168H32.7352C31.7592 9.168 31.2712 9.496 31.2712 10.152C31.2712 10.472 31.3952 10.724 31.6432 10.908C31.8912 11.092 32.2352 11.184 32.6752 11.184ZM41.0761 8.688C41.5001 8.8 41.8281 8.98 42.0601 9.228C42.2921 9.476 42.4081 9.784 42.4081 10.152C42.4081 10.528 42.2801 10.864 42.0241 11.16C41.7681 11.448 41.4121 11.676 40.9561 11.844C40.5081 12.004 40.0041 12.084 39.4441 12.084C38.9721 12.084 38.5081 12.024 38.0521 11.904C37.6041 11.776 37.2041 11.596 36.8521 11.364L37.2001 10.488C37.5041 10.68 37.8521 10.832 38.2441 10.944C38.6361 11.048 39.0321 11.1 39.4321 11.1C39.9761 11.1 40.4081 11.008 40.7281 10.824C41.0561 10.632 41.2201 10.376 41.2201 10.056C41.2201 9.76 41.0881 9.532 40.8241 9.372C40.5681 9.212 40.2041 9.132 39.7321 9.132H38.5681V8.304H39.6481C40.0801 8.304 40.4201 8.228 40.6681 8.076C40.9161 7.924 41.0401 7.716 41.0401 7.452C41.0401 7.164 40.8921 6.94 40.5961 6.78C40.3081 6.62 39.9161 6.54 39.4201 6.54C38.7881 6.54 38.1201 6.704 37.4161 7.032L37.1041 6.144C37.8801 5.752 38.6921 5.556 39.5401 5.556C40.0521 5.556 40.5121 5.628 40.9201 5.772C41.3281 5.916 41.6481 6.12 41.8801 6.384C42.1121 6.648 42.2281 6.948 42.2281 7.284C42.2281 7.596 42.1241 7.876 41.9161 8.124C41.7081 8.372 41.4281 8.56 41.0761 8.688ZM47.5315 5.58C48.1475 5.58 48.6995 5.716 49.1875 5.988C49.6755 6.26 50.0555 6.64 50.3275 7.128C50.6075 7.616 50.7475 8.18 50.7475 8.82C50.7475 9.46 50.6075 10.028 50.3275 10.524C50.0555 11.012 49.6755 11.392 49.1875 11.664C48.6995 11.936 48.1475 12.072 47.5315 12.072C47.0755 12.072 46.6555 11.984 46.2715 11.808C45.8955 11.632 45.5755 11.376 45.3115 11.04V14.328H44.1595V5.64H45.2635V6.648C45.5195 6.296 45.8435 6.032 46.2355 5.856C46.6275 5.672 47.0595 5.58 47.5315 5.58ZM47.4355 11.064C47.8435 11.064 48.2075 10.972 48.5275 10.788C48.8555 10.596 49.1115 10.332 49.2955 9.996C49.4875 9.652 49.5835 9.26 49.5835 8.82C49.5835 8.38 49.4875 7.992 49.2955 7.656C49.1115 7.312 48.8555 7.048 48.5275 6.864C48.2075 6.68 47.8435 6.588 47.4355 6.588C47.0355 6.588 46.6715 6.684 46.3435 6.876C46.0235 7.06 45.7675 7.32 45.5755 7.656C45.3915 7.992 45.2995 8.38 45.2995 8.82C45.2995 9.26 45.3915 9.652 45.5755 9.996C45.7595 10.332 46.0155 10.596 46.3435 10.788C46.6715 10.972 47.0355 11.064 47.4355 11.064ZM54.6306 5.58C55.5106 5.58 56.1826 5.796 56.6466 6.228C57.1186 6.66 57.3546 7.304 57.3546 8.16V12H56.2626V11.16C56.0706 11.456 55.7946 11.684 55.4346 11.844C55.0826 11.996 54.6626 12.072 54.1746 12.072C53.4626 12.072 52.8906 11.9 52.4586 11.556C52.0346 11.212 51.8226 10.76 51.8226 10.2C51.8226 9.64 52.0266 9.192 52.4346 8.856C52.8426 8.512 53.4906 8.34 54.3786 8.34H56.2026V8.112C56.2026 7.616 56.0586 7.236 55.7706 6.972C55.4826 6.708 55.0586 6.576 54.4986 6.576C54.1226 6.576 53.7546 6.64 53.3946 6.768C53.0346 6.888 52.7306 7.052 52.4826 7.26L52.0026 6.396C52.3306 6.132 52.7226 5.932 53.1786 5.796C53.6346 5.652 54.1186 5.58 54.6306 5.58ZM54.3666 11.184C54.8066 11.184 55.1866 11.088 55.5066 10.896C55.8266 10.696 56.0586 10.416 56.2026 10.056V9.168H54.4266C53.4506 9.168 52.9626 9.496 52.9626 10.152C52.9626 10.472 53.0866 10.724 53.3346 10.908C53.5826 11.092 53.9266 11.184 54.3666 11.184ZM62.669 5.856C63.261 5.856 63.789 5.988 64.253 6.252C64.717 6.516 65.077 6.884 65.333 7.356C65.597 7.82 65.729 8.352 65.729 8.952C65.729 9.568 65.589 10.116 65.309 10.596C65.037 11.068 64.649 11.436 64.145 11.7C63.649 11.964 63.081 12.096 62.441 12.096C61.361 12.096 60.525 11.728 59.933 10.992C59.349 10.248 59.057 9.204 59.057 7.86C59.057 6.556 59.325 5.536 59.861 4.8C60.397 4.056 61.217 3.564 62.321 3.324L65.225 2.676L65.393 3.732L62.717 4.308C61.885 4.492 61.265 4.804 60.857 5.244C60.449 5.684 60.217 6.316 60.161 7.14C60.433 6.732 60.785 6.416 61.217 6.192C61.649 5.968 62.133 5.856 62.669 5.856ZM62.465 11.136C62.873 11.136 63.233 11.044 63.545 10.86C63.865 10.676 64.113 10.424 64.289 10.104C64.465 9.776 64.553 9.404 64.553 8.988C64.553 8.356 64.361 7.848 63.977 7.464C63.593 7.08 63.089 6.888 62.465 6.888C61.841 6.888 61.333 7.08 60.941 7.464C60.557 7.848 60.365 8.356 60.365 8.988C60.365 9.404 60.453 9.776 60.629 10.104C60.813 10.424 61.065 10.676 61.385 10.86C61.705 11.044 62.065 11.136 62.465 11.136ZM70.0983 12.072C69.4663 12.072 68.8983 11.932 68.3943 11.652C67.8903 11.372 67.4943 10.988 67.2063 10.5C66.9263 10.004 66.7863 9.444 66.7863 8.82C66.7863 8.196 66.9263 7.64 67.2063 7.152C67.4943 6.656 67.8903 6.272 68.3943 6C68.8983 5.72 69.4663 5.58 70.0983 5.58C70.7303 5.58 71.2943 5.72 71.7903 6C72.2943 6.272 72.6863 6.656 72.9663 7.152C73.2543 7.64 73.3983 8.196 73.3983 8.82C73.3983 9.444 73.2543 10.004 72.9663 10.5C72.6863 10.988 72.2943 11.372 71.7903 11.652C71.2943 11.932 70.7303 12.072 70.0983 12.072ZM70.0983 11.064C70.5063 11.064 70.8703 10.972 71.1903 10.788C71.5183 10.596 71.7743 10.332 71.9583 9.996C72.1423 9.652 72.2343 9.26 72.2343 8.82C72.2343 8.38 72.1423 7.992 71.9583 7.656C71.7743 7.312 71.5183 7.048 71.1903 6.864C70.8703 6.68 70.5063 6.588 70.0983 6.588C69.6903 6.588 69.3223 6.68 68.9943 6.864C68.6743 7.048 68.4183 7.312 68.2263 7.656C68.0423 7.992 67.9503 8.38 67.9503 8.82C67.9503 9.26 68.0423 9.652 68.2263 9.996C68.4183 10.332 68.6743 10.596 68.9943 10.788C69.3223 10.972 69.6903 11.064 70.0983 11.064ZM79.5674 6.648H77.2394V12H76.0874V6.648H73.7594V5.64H79.5674V6.648ZM83.0134 5.58C83.8934 5.58 84.5654 5.796 85.0294 6.228C85.5014 6.66 85.7374 7.304 85.7374 8.16V12H84.6454V11.16C84.4534 11.456 84.1774 11.684 83.8174 11.844C83.4654 11.996 83.0454 12.072 82.5574 12.072C81.8454 12.072 81.2734 11.9 80.8414 11.556C80.4174 11.212 80.2054 10.76 80.2054 10.2C80.2054 9.64 80.4094 9.192 80.8174 8.856C81.2254 8.512 81.8734 8.34 82.7614 8.34H84.5854V8.112C84.5854 7.616 84.4414 7.236 84.1534 6.972C83.8654 6.708 83.4414 6.576 82.8814 6.576C82.5054 6.576 82.1374 6.64 81.7774 6.768C81.4174 6.888 81.1134 7.052 80.8654 7.26L80.3854 6.396C80.7134 6.132 81.1054 5.932 81.5614 5.796C82.0174 5.652 82.5014 5.58 83.0134 5.58ZM82.7494 11.184C83.1894 11.184 83.5694 11.088 83.8894 10.896C84.2094 10.696 84.4414 10.416 84.5854 10.056V9.168H82.8094C81.8334 9.168 81.3454 9.496 81.3454 10.152C81.3454 10.472 81.4694 10.724 81.7174 10.908C81.9654 11.092 82.3094 11.184 82.7494 11.184ZM87.8118 5.64H88.9638V8.34H92.5878V5.64H93.7398V12H92.5878V9.336H88.9638V12H87.8118V5.64ZM98.7038 12.072C98.0718 12.072 97.5038 11.932 96.9998 11.652C96.4958 11.372 96.0998 10.988 95.8118 10.5C95.5318 10.004 95.3918 9.444 95.3918 8.82C95.3918 8.196 95.5318 7.64 95.8118 7.152C96.0998 6.656 96.4958 6.272 96.9998 6C97.5038 5.72 98.0718 5.58 98.7038 5.58C99.3358 5.58 99.8998 5.72 100.396 6C100.9 6.272 101.292 6.656 101.572 7.152C101.86 7.64 102.004 8.196 102.004 8.82C102.004 9.444 101.86 10.004 101.572 10.5C101.292 10.988 100.9 11.372 100.396 11.652C99.8998 11.932 99.3358 12.072 98.7038 12.072ZM98.7038 11.064C99.1118 11.064 99.4758 10.972 99.7958 10.788C100.124 10.596 100.38 10.332 100.564 9.996C100.748 9.652 100.84 9.26 100.84 8.82C100.84 8.38 100.748 7.992 100.564 7.656C100.38 7.312 100.124 7.048 99.7958 6.864C99.4758 6.68 99.1118 6.588 98.7038 6.588C98.2958 6.588 97.9278 6.68 97.5998 6.864C97.2798 7.048 97.0238 7.312 96.8318 7.656C96.6478 7.992 96.5558 8.38 96.5558 8.82C96.5558 9.26 96.6478 9.652 96.8318 9.996C97.0238 10.332 97.2798 10.596 97.5998 10.788C97.9278 10.972 98.2958 11.064 98.7038 11.064ZM114.822 12L114.81 5.88L111.774 10.98H111.222L108.186 5.916V12H107.034V3.6H108.018L111.522 9.504L114.978 3.6H115.962L115.974 12H114.822ZM124.591 10.956V12H118.495V3.6H124.423V4.644H119.695V7.224H123.907V8.244H119.695V10.956H124.591ZM133.713 3.6L130.029 12H128.841L125.145 3.6H126.441L129.465 10.5L132.513 3.6H133.713ZM140.88 10.956V12H134.784V3.6H140.712V4.644H135.984V7.224H140.196V8.244H135.984V10.956H140.88ZM150.047 3.6V12H149.063L144.023 5.736V12H142.823V3.6H143.807L148.847 9.864V3.6H150.047Z" fill="white"/>
</svg>
