<svg width="31" height="20" viewBox="0 0 31 20" fill="none" xmlns="http://www.w3.org/2000/svg">
<path fill-rule="evenodd" clip-rule="evenodd" d="M29.3346 2.21879C29.5363 1.51632 29.3346 1 28.3751 1H25.2025C24.3958 1 24.0241 1.44597 23.8224 1.93789C23.8224 1.93789 22.2089 6.04782 19.9233 8.7175C19.1838 9.49032 18.8478 9.73592 18.4444 9.73592C18.2427 9.73592 17.9508 9.49032 17.9508 8.78784V2.21879C17.9508 1.37563 17.7167 1 17.0444 1H12.0588C11.5548 1 11.2516 1.39126 11.2516 1.76216C11.2516 2.5615 12.3942 2.74576 12.5121 4.99387V9.87684C12.5121 10.9474 12.3271 11.1416 11.9238 11.1416C10.8483 11.1416 8.2322 7.01295 6.68034 2.28913C6.37622 1.37089 6.0712 1 5.26037 1H2.08775C1.18129 1 1 1.44597 1 1.93789C1 2.81611 2.07574 7.17211 6.0082 12.9331C8.63014 16.867 12.3235 19 15.6847 19C17.7016 19 17.9508 18.5263 17.9508 17.7104V14.7368C17.9508 13.7895 18.1419 13.6005 18.7802 13.6005C19.2512 13.6005 20.0577 13.8463 21.9402 15.7432C24.0912 17.9911 24.4456 19 25.6558 19H28.8284C29.7348 19 30.1881 18.5263 29.9265 17.5915C29.6406 16.6598 28.6135 15.3083 27.2507 13.7059C26.5112 12.7924 25.4019 11.8088 25.0661 11.3171C24.5954 10.6847 24.7298 10.4038 25.0661 9.84203C25.0661 9.84203 28.9313 4.15119 29.3346 2.21903V2.21879Z" stroke="#626262" stroke-width="2"/>
</svg>
