<svg width="25" height="25" viewBox="0 0 25 25" fill="none" xmlns="http://www.w3.org/2000/svg">
<path d="M8.334 12.5C8.334 10.1989 10.1989 8.333 12.5 8.333C14.8011 8.333 16.667 10.1989 16.667 12.5C16.667 14.8011 14.8011 16.667 12.5 16.667C10.1989 16.667 8.334 14.8011 8.334 12.5ZM6.0814 12.5C6.0814 16.045 8.955 18.9186 12.5 18.9186C16.045 18.9186 18.9186 16.045 18.9186 12.5C18.9186 8.955 16.045 6.0814 12.5 6.0814C8.955 6.0814 6.0814 8.955 6.0814 12.5ZM17.6727 5.8269C17.6726 6.12357 17.7604 6.41362 17.9252 6.66036C18.0899 6.9071 18.3241 7.09945 18.5981 7.21309C18.8722 7.32673 19.1737 7.35656 19.4647 7.29879C19.7557 7.24103 20.0231 7.09828 20.2329 6.88858C20.4428 6.67889 20.5858 6.41167 20.6438 6.12072C20.7018 5.82978 20.6722 5.52816 20.5587 5.25403C20.4453 4.97989 20.2532 4.74555 20.0066 4.58063C19.7599 4.41571 19.47 4.32762 19.1733 4.3275H19.1727C18.775 4.32769 18.3937 4.4857 18.1125 4.76683C17.8312 5.04797 17.673 5.42924 17.6727 5.8269ZM7.45 22.6747C6.2313 22.6192 5.5689 22.4162 5.1287 22.2447C4.5451 22.0175 4.1287 21.7469 3.6909 21.3097C3.2531 20.8725 2.9821 20.4565 2.7559 19.8729C2.5843 19.4329 2.3813 18.7703 2.3259 17.5516C2.2653 16.234 2.2532 15.8382 2.2532 12.5001C2.2532 9.162 2.2663 8.7673 2.3259 7.4486C2.3814 6.2299 2.5859 5.5686 2.7559 5.1273C2.9831 4.5437 3.2537 4.1273 3.6909 3.6895C4.1281 3.2517 4.5441 2.9807 5.1287 2.7545C5.5687 2.5829 6.2313 2.3799 7.45 2.3245C8.7676 2.2639 9.1634 2.2518 12.5 2.2518C15.8366 2.2518 16.2328 2.2649 17.5515 2.3245C18.7702 2.38 19.4315 2.5845 19.8728 2.7545C20.4564 2.9807 20.8728 3.2523 21.3106 3.6895C21.7484 4.1267 22.0184 4.5437 22.2456 5.1273C22.4172 5.5673 22.6202 6.2299 22.6756 7.4486C22.7362 8.7673 22.7483 9.162 22.7483 12.5001C22.7483 15.8382 22.7362 16.2329 22.6756 17.5516C22.6201 18.7703 22.4161 19.4327 22.2456 19.8729C22.0184 20.4565 21.7478 20.8729 21.3106 21.3097C20.8734 21.7465 20.4564 22.0175 19.8728 22.2447C19.4328 22.4163 18.7702 22.6193 17.5515 22.6747C16.2339 22.7353 15.8381 22.7474 12.5 22.7474C9.1619 22.7474 8.7672 22.7353 7.45 22.6747ZM7.3465 0.0757C6.0158 0.1363 5.1065 0.3473 4.3124 0.6563C3.49 0.9754 2.7938 1.4035 2.0981 2.0981C1.4024 2.7927 0.9754 3.49 0.6563 4.3124C0.3473 5.107 0.1363 6.0158 0.0757 7.3465C0.0141 8.6793 0 9.1054 0 12.5C0 15.8946 0.0141 16.3207 0.0757 17.6535C0.1363 18.9843 0.3473 19.893 0.6563 20.6876C0.9754 21.5095 1.4025 22.2076 2.0981 22.9019C2.7937 23.5962 3.49 24.0237 4.3124 24.3437C5.108 24.6527 6.0158 24.8637 7.3465 24.9243C8.68 24.9849 9.1054 25 12.5 25C15.8946 25 16.3207 24.9859 17.6535 24.9243C18.9843 24.8637 19.893 24.6527 20.6876 24.3437C21.5095 24.0237 22.2062 23.5965 22.9019 22.9019C23.5976 22.2073 24.0237 21.5095 24.3437 20.6876C24.6527 19.893 24.8647 18.9842 24.9243 17.6535C24.9849 16.3197 24.999 15.8946 24.999 12.5C24.999 9.1054 24.9849 8.6793 24.9243 7.3465C24.8637 6.0157 24.6527 5.1065 24.3437 4.3124C24.0237 3.4905 23.5965 2.7938 22.9019 2.0981C22.2073 1.4024 21.5095 0.9754 20.6886 0.6563C19.893 0.3473 18.9842 0.1353 17.6545 0.0757C16.3217 0.0151 15.8956 0 12.501 0C9.1064 0 8.68 0.0141 7.3465 0.0757Z" fill="#626262"/>
</svg>
