<svg width="172" height="29" viewBox="0 0 172 29" fill="none" xmlns="http://www.w3.org/2000/svg">
<path d="M10.7953 9.90914H12.3379C12.2186 7.25857 9.92596 5.29834 6.6788 5.29834C3.45721 5.29834 0.977095 7.233 0.977095 10.0455C0.977095 12.287 2.56232 13.6932 5.29812 14.5029L7.38619 15.1165C9.55096 15.7472 11.0339 16.5569 11.0339 18.3381C11.0339 20.4347 9.13335 21.841 6.52539 21.841C4.17312 21.841 2.33221 20.7074 2.16175 18.6364H0.525391C0.712891 21.3978 2.96289 23.2983 6.52539 23.2983C10.3095 23.2983 12.5765 21.1591 12.5765 18.3637C12.5765 15.466 10.0538 14.3069 7.83789 13.6847L5.99698 13.1563C4.30096 12.679 2.51971 11.8182 2.51971 9.97732C2.51971 8.10232 4.19869 6.73016 6.63619 6.73016C8.94584 6.73016 10.5993 7.96595 10.7953 9.90914Z" fill="white"/>
<path d="M28.0453 5.5455V16.9915C28.0453 19.7699 26.068 21.7983 23.0254 21.7983C19.9828 21.7983 18.0055 19.7699 18.0055 16.9915V5.5455H16.4118V17.1023C16.4032 20.6648 19.0964 23.2983 23.0254 23.2983C26.9629 23.2983 29.639 20.6648 29.639 17.1023V5.5455H28.0453Z" fill="white"/>
<path d="M47.8649 5.5455H46.2967V20.179H46.1603L35.8137 5.5455H34.2711V23H35.8649V8.38357H36.0012L46.3137 23H47.8649V5.5455Z" fill="white"/>
<path d="M51.4487 6.97732H56.9799V23H58.5737V6.97732H64.1049V5.5455H51.4487V6.97732Z" fill="white"/>
<path d="M67.693 23H77.9885V21.5682H69.2868V14.9802H77.2811V13.5483H69.2868V6.97732H77.818V5.5455H67.693V23Z" fill="white"/>
<path d="M95.6135 11C95.0424 7.78698 92.4174 5.30686 88.7015 5.30686C84.2953 5.30686 81.1589 8.8097 81.1589 14.2728C81.1589 19.7358 84.2953 23.2387 88.7015 23.2387C92.4174 23.2387 95.0424 20.75 95.6135 17.5455H94.0112C93.5254 19.9404 91.4373 21.7387 88.7015 21.7387C85.3947 21.7387 82.7015 19.1222 82.7015 14.2728C82.7015 9.44039 85.3947 6.80686 88.7015 6.80686C91.4373 6.80686 93.5254 8.61368 94.0112 11H95.6135Z" fill="white"/>
<path d="M99.3571 23H100.951V14.9802H110.854V23H112.448V5.5455H110.854V13.5483H100.951V5.5455H99.3571V23Z" fill="white"/>
<path d="M130.67 5.5455H129.101V20.179H128.965L118.618 5.5455H117.076V23H118.67V8.38357H118.806L129.118 23H130.67V5.5455Z" fill="white"/>
<path d="M136.904 5.5455H135.31V23H136.904V5.5455Z" fill="white"/>
<path d="M155.215 11C154.644 7.78698 152.019 5.30686 148.303 5.30686C143.897 5.30686 140.76 8.8097 140.76 14.2728C140.76 19.7358 143.897 23.2387 148.303 23.2387C152.019 23.2387 154.644 20.75 155.215 17.5455H153.613C153.127 19.9404 151.039 21.7387 148.303 21.7387C144.996 21.7387 142.303 19.1222 142.303 14.2728C142.303 9.44039 144.996 6.80686 148.303 6.80686C151.039 6.80686 153.127 8.61368 153.613 11H155.215Z" fill="white"/>
<path d="M158.984 23L160.851 17.7415H168.18L170.047 23H171.717L165.368 5.5455H163.663L157.314 23H158.984ZM161.362 16.3097L164.456 7.61652H164.575L167.669 16.3097H161.362Z" fill="white"/>
<rect x="1" y="28" width="47" height="1" fill="white"/>
<rect x="51" width="121" height="1" fill="white"/>
</svg>
