<svg width="118" height="113" viewBox="0 0 118 113" fill="none" xmlns="http://www.w3.org/2000/svg">
<path d="M68.9848 113H118V52.342C118 36.0361 114.732 23.6436 108.197 15.1645C101.008 6.35931 88.9177 1.30448 71.9257 0V28.8615C77.8075 28.8615 82.7091 31.3074 86.6303 36.1991C88.5909 38.8081 89.5712 43.8629 89.5712 51.3636V60.658H68.9848V113ZM0 113H49.0152V52.342C49.0152 36.0361 46.0743 24.1328 40.1925 16.6321C32.35 6.84849 19.9328 1.30448 2.94093 0V28.8615C13.0707 28.8615 18.7892 33.9163 20.0962 44.026C20.423 45.3305 20.5864 47.7764 20.5864 51.3636V60.658H0V113Z" fill="#3A3A3A"/>
</svg>
